<?xml version="1.0" encoding="UTF-8" standalone="no"?>
<!-- Uploaded to: SVG Repo, www.svgrepo.com, Generator: SVG Repo Mixer Tools -->

<svg
   fill="#000000"
   height="700"
   width="750"
   version="1.1"
   id="Capa_1"
   viewBox="0 0 442.21969 412.73838"
   xml:space="preserve"
   xmlns="http://www.w3.org/2000/svg"
   xmlns:svg="http://www.w3.org/2000/svg"><defs
   id="defs1" />&#10;<g
   id="g1"
   transform="matrix(0.9374998,0,0,0.99526977,-4.2415143e-4,-28.366184)"
   style="fill:#ffffff;stroke:#ffffff">&#10;	<path
   d="m 433.601,67.001 c -24.7,-24.7 -57.4,-38.2 -92.3,-38.2 -34.9,0 -67.7,13.6 -92.4,38.3 l -12.9,12.9 -13.1,-13.1 c -24.7,-24.7 -57.6,-38.4 -92.5,-38.4 -34.8,0 -67.6,13.6 -92.2,38.2 -24.7,24.7 -38.3,57.5 -38.2,92.4 0,34.9 13.7,67.6 38.4,92.3 l 187.8,187.8 c 2.6,2.6 6.1,4 9.5,4 3.4,0 6.9,-1.3 9.5,-3.9 l 188.2,-187.5 c 24.7,-24.7 38.3,-57.5 38.3,-92.4 0.1,-34.9 -13.4,-67.7 -38.1,-92.4 z"
   id="path1"
   style="fill:#ffffff;stroke:#ffffff" />&#10;</g>&#10;</svg>
