<?xml version="1.0" encoding="UTF-8" standalone="no"?>
<svg
   width="280"
   height="89"
   viewBox="0 0 280 89"
   fill="none"
   version="1.1"
   id="svg6"
   sodipodi:docname="bangerifyLogoWhite.svg"
   inkscape:version="1.1.1 (3bf5ae0d25, 2021-09-20)"
   xmlns:inkscape="http://www.inkscape.org/namespaces/inkscape"
   xmlns:sodipodi="http://sodipodi.sourceforge.net/DTD/sodipodi-0.dtd"
   xmlns="http://www.w3.org/2000/svg"
   xmlns:svg="http://www.w3.org/2000/svg">
  <defs
     id="defs10" />
  <sodipodi:namedview
     id="namedview8"
     pagecolor="#ffffff"
     bordercolor="#666666"
     borderopacity="1.0"
     inkscape:pageshadow="2"
     inkscape:pageopacity="0.0"
     inkscape:pagecheckerboard="0"
     showgrid="false"
     inkscape:zoom="1.4167389"
     inkscape:cx="-17.646159"
     inkscape:cy="-40.586165"
     inkscape:window-width="1920"
     inkscape:window-height="1009"
     inkscape:window-x="-8"
     inkscape:window-y="-8"
     inkscape:window-maximized="1"
     inkscape:current-layer="svg6" />
  <path
     d="M34.8207 46.7681C34.6073 46.5121 34.458 46.2988 34.3727 46.1281C34.2873 45.9575 34.33 45.7228 34.5007 45.4241C35.354 43.9735 36.0793 42.3948 36.6767 40.6881C37.3167 38.9815 37.6367 37.2321 37.6367 35.4401C37.6367 33.0508 37.2527 31.0455 36.4847 29.4241C35.7167 27.7601 34.6713 26.4161 33.3486 25.3921C32.026 24.3255 30.49 23.5575 28.7407 23.0881C27.034 22.6188 25.242 22.3415 23.3646 22.2561C21.4873 22.1708 19.5886 22.2561 17.6686 22.5121C15.7486 22.7681 13.9353 23.1308 12.2286 23.6001L12.1646 23.6641C12.2926 31.0881 12.2926 38.4481 12.1646 45.7441C12.0366 52.9975 12.1006 60.3148 12.3566 67.6961C12.57 67.7815 12.7833 67.8241 12.9966 67.8241C13.2526 67.8241 13.5086 67.8241 13.7646 67.8241C15.3006 67.8668 16.9433 67.9521 18.6926 68.0801C20.4846 68.2081 22.2553 68.2508 24.0047 68.2081C25.7966 68.2081 27.5246 68.1015 29.1887 67.8881C30.8527 67.6321 32.3673 67.1628 33.7327 66.4801C35.098 65.7975 36.25 64.8375 37.1887 63.6001C38.17 62.3201 38.8313 60.6775 39.1727 58.6721C39.4287 57.3068 39.4713 56.0695 39.3007 54.9601C39.13 53.8508 38.81 52.8481 38.3407 51.9521C37.914 51.0135 37.3807 50.1388 36.7407 49.3281C36.1433 48.4748 35.5033 47.6215 34.8207 46.7681ZM28.8047 57.3921C28.378 57.9041 27.866 58.2881 27.2687 58.5441C26.714 58.7575 26.0953 58.9068 25.4127 58.9921C24.7727 59.0348 24.1113 59.0561 23.4286 59.0561C22.7886 59.0135 22.17 58.9921 21.5726 58.9921L21.4446 58.9281C21.1033 58.4161 20.8686 57.7761 20.7407 57.0081C20.6126 56.2401 20.5486 55.4508 20.5486 54.6401C20.5913 53.7868 20.6767 52.9548 20.8047 52.1441C20.9326 51.3335 21.082 50.6081 21.2527 49.9681C22.0633 50.0535 22.8953 50.1175 23.7487 50.1601C24.602 50.1601 25.434 50.2668 26.2446 50.4801C26.7993 50.6081 27.3327 50.8855 27.8447 51.3121C28.3567 51.6961 28.7407 52.1441 28.9967 52.6561C29.2953 53.3815 29.4447 54.1921 29.4447 55.0881C29.4873 55.9841 29.274 56.7521 28.8047 57.3921ZM28.7407 39.1521C28.3993 39.7921 27.93 40.2828 27.3327 40.6241C26.778 40.9228 26.1593 41.1148 25.4767 41.2001C24.794 41.2855 24.09 41.3068 23.3646 41.2641C22.6393 41.2215 21.9567 41.1575 21.3167 41.0721C20.9327 39.5788 20.8046 38.1281 20.9326 36.7201C21.1033 35.3121 21.146 34.1175 21.0606 33.1361C21.7006 32.7948 22.49 32.6455 23.4286 32.6881C24.41 32.6881 25.3273 32.7735 26.1807 32.9441C26.8633 33.1148 27.4607 33.3921 27.9727 33.7761C28.5273 34.1175 28.9753 34.6295 29.3167 35.3121C29.658 35.9948 29.722 36.6775 29.5086 37.3601C29.2953 38.0428 29.0393 38.6401 28.7407 39.1521ZM62.8962 45.4881C62.7255 44.7628 62.4908 43.7815 62.1922 42.5441C61.8935 41.3068 61.5735 39.9415 61.2322 38.4481C60.8908 36.9548 60.5281 35.3975 60.1441 33.7761C59.8028 32.1548 59.4615 30.6401 59.1201 29.2321C58.8215 27.7815 58.5228 26.5015 58.2241 25.3921C57.9682 24.2401 57.7762 23.3868 57.6481 22.8321C56.2401 22.9601 55.0882 23.0455 54.1922 23.0881C53.3388 23.0881 52.6348 23.0881 52.0801 23.0881C51.5255 23.0881 51.0775 23.0881 50.7361 23.0881C50.3948 23.0881 50.0748 23.1095 49.7761 23.1521C48.7521 26.5655 47.8135 30.0001 46.9601 33.4561C46.1068 36.9121 45.3175 40.2401 44.5921 43.4401C43.8668 46.6401 43.2268 49.6695 42.6721 52.5281C42.1601 55.3441 41.7121 57.8401 41.3281 60.0161C40.9441 62.1921 40.6455 63.9628 40.4321 65.3281C40.2188 66.6935 40.0695 67.5255 39.9841 67.8241C40.0268 67.8668 40.0695 67.8881 40.1121 67.8881C43.0135 67.8455 45.1468 67.8668 46.5121 67.9521C47.8775 68.0375 48.7308 68.0375 49.0722 67.9521C49.1148 67.9521 49.1361 67.9521 49.1361 67.9521C49.1788 67.9095 49.2215 67.8881 49.2641 67.8881C49.6481 67.1628 49.9468 66.3308 50.1601 65.3921C50.3735 64.4535 50.5655 63.4935 50.7361 62.5121C50.9495 61.4881 51.1415 60.5281 51.3122 59.6321C51.5255 58.6935 51.7815 57.8828 52.0801 57.2001C52.5495 57.2001 52.9122 57.2001 53.1681 57.2001C53.4668 57.1575 53.7228 57.1361 53.9362 57.1361C54.1922 57.1361 54.4695 57.1361 54.7682 57.1361C55.0668 57.1361 55.4935 57.1788 56.0482 57.2641C56.3468 57.9041 56.6242 58.6721 56.8801 59.5681C57.1362 60.4641 57.3708 61.4028 57.5842 62.3841C57.8402 63.3655 58.0748 64.3255 58.2882 65.2641C58.5442 66.2028 58.8001 67.0135 59.0562 67.6961H59.1201C60.4855 67.9948 61.9362 68.1655 63.4722 68.2081C65.0082 68.2935 66.4161 68.2081 67.6961 67.9521V67.8881L62.8962 45.4881ZM56.3682 49.6481C55.5575 49.6481 54.7468 49.6695 53.9362 49.7121C53.1255 49.7121 52.3575 49.6908 51.6321 49.6481C51.9308 47.4721 52.1868 45.4455 52.4002 43.5681C52.6562 41.6908 52.8695 40.1335 53.0401 38.8961C53.2535 37.6588 53.4668 36.8481 53.6802 36.4641C53.9361 36.0375 54.1708 36.1868 54.3842 36.9121C54.6402 37.6375 54.9175 39.0241 55.2162 41.0721C55.5575 43.1201 55.9415 45.9788 56.3682 49.6481ZM94.6142 68.2721C95.3395 68.2721 95.8515 68.2295 96.1502 68.1441C96.4488 68.0588 96.6408 67.9948 96.7262 67.9521V66.6721C96.7262 65.8188 96.7048 64.9655 96.6622 64.1121C96.6622 63.2588 96.6622 62.4055 96.6622 61.5521C96.6622 60.3575 96.6622 59.1841 96.6622 58.0321C96.7048 56.8801 96.7262 55.6855 96.7262 54.4481C96.7262 52.6135 96.7262 50.7788 96.7262 48.9441C96.7262 47.1095 96.7048 45.2961 96.6622 43.5041V22.8961C95.4248 22.6401 94.0168 22.5121 92.4382 22.5121C90.8168 22.5121 89.2808 22.6401 87.8302 22.8961C87.7875 23.9628 87.7448 24.9655 87.7022 25.9041C87.7022 26.8001 87.7022 27.6961 87.7022 28.5921C87.7022 30.1281 87.7235 31.6428 87.7661 33.1361C87.8515 34.5868 87.8941 36.1655 87.8941 37.8721C87.8941 38.5975 87.8515 39.3441 87.7661 40.1121C87.6808 40.8801 87.5742 41.3068 87.4461 41.3921C87.4035 41.3921 87.2542 41.1575 86.9981 40.6881C86.7422 40.1761 86.4222 39.5788 86.0382 38.8961C85.6968 38.1708 85.3128 37.3815 84.8862 36.5281C84.4595 35.6321 84.0542 34.8001 83.6702 34.0321C83.2862 33.2215 82.9448 32.5175 82.6462 31.9201C82.3475 31.3228 82.1555 30.9175 82.0702 30.7041C81.6862 29.8081 81.3448 29.0828 81.0462 28.5281C80.7902 27.9308 80.5342 27.3975 80.2781 26.9281C80.0648 26.4588 79.8301 25.9681 79.5742 25.4561C79.3182 24.9441 79.0408 24.3041 78.7422 23.5361C78.7422 23.4508 78.5075 23.3655 78.0381 23.2801C77.6115 23.1948 77.0995 23.1308 76.5021 23.0881C75.9048 23.0028 75.3075 22.9601 74.7101 22.9601C74.1128 22.9175 73.6861 22.8961 73.4301 22.8961C72.9181 22.8961 72.4061 22.9175 71.8941 22.9601C71.4248 23.0028 70.9768 23.0668 70.5501 23.1521C70.3368 25.8828 70.1875 28.6988 70.1021 31.6001C70.0168 34.4588 69.9741 37.3601 69.9741 40.3041C69.9741 44.3148 69.9955 48.1548 70.0381 51.8241C70.1235 55.4935 70.1661 59.3548 70.1661 63.4081V67.8881C71.1475 67.8881 72.1501 67.9521 73.1741 68.0801C74.2408 68.2081 75.2861 68.2721 76.3102 68.2721C76.7795 68.2721 77.2488 68.2508 77.7182 68.2081C78.1875 68.1655 78.6568 68.0801 79.1262 67.9521C79.0835 67.2268 79.0622 66.4161 79.0622 65.5201C79.0622 64.5815 79.0622 63.6215 79.0622 62.6401C79.0622 60.8481 79.0622 58.9921 79.0622 57.0721C79.1048 55.1521 79.1475 53.4028 79.1902 51.8241C79.2328 50.2455 79.2755 48.9441 79.3181 47.9201C79.4035 46.8961 79.4675 46.3841 79.5101 46.3841C79.5955 46.3841 79.7022 46.5975 79.8301 47.0241C80.0008 47.4081 80.1715 47.8348 80.3421 48.3041L80.9822 50.2241C81.9635 52.9548 83.1368 55.8135 84.5021 58.8001C85.9102 61.7441 87.3182 64.7948 88.7262 67.9521C89.5795 67.9521 90.5608 67.9948 91.6702 68.0801C92.7795 68.2081 93.7608 68.2721 94.6142 68.2721ZM114.905 45.6801C114.82 45.7228 114.777 45.7441 114.777 45.7441C114.734 45.7441 114.713 45.7655 114.713 45.8081V45.8721C114.798 46.6401 114.841 47.2801 114.841 47.7921C114.841 48.3041 114.82 48.8161 114.777 49.3281C114.777 49.7975 114.777 50.2881 114.777 50.8001C114.82 51.3121 114.884 51.9095 114.969 52.5921C115.182 52.6775 115.481 52.7415 115.865 52.7841C116.292 52.7841 116.74 52.7841 117.209 52.7841C117.721 52.7415 118.19 52.7201 118.617 52.7201C119.086 52.6775 119.449 52.6775 119.705 52.7201C119.833 52.7628 119.897 52.9548 119.897 53.2961C119.94 53.6375 119.94 54.0215 119.897 54.4481C119.897 54.8748 119.854 55.3015 119.769 55.7281C119.726 56.1121 119.684 56.3895 119.641 56.5601C119.47 57.1575 119.214 57.6481 118.873 58.0321C118.532 58.3735 118.126 58.6508 117.657 58.8641C117.06 59.0775 116.398 59.2481 115.673 59.3761C114.99 59.5041 114.329 59.5255 113.689 59.4401C113.092 59.3121 112.601 59.1201 112.217 58.8641C111.406 58.2241 110.873 57.3495 110.617 56.2401C110.361 55.1308 110.19 54.1068 110.105 53.1681C109.977 51.5895 109.892 49.9255 109.849 48.1761C109.806 46.4268 109.828 44.7415 109.913 43.1201C109.998 41.4561 110.126 39.8988 110.297 38.4481C110.51 36.9975 110.766 35.7601 111.065 34.7361C111.15 34.3948 111.257 34.0535 111.385 33.7121C111.556 33.3281 111.684 33.0935 111.769 33.0081C112.281 32.4961 112.878 32.2401 113.561 32.2401C114.244 32.2401 114.948 32.2615 115.673 32.3041C116.313 32.3041 116.868 32.5175 117.337 32.9441C117.806 33.3281 118.212 33.7975 118.553 34.3521C118.937 34.8641 119.236 35.4401 119.449 36.0801C119.705 36.6775 119.897 37.1895 120.025 37.6161C120.665 37.7015 121.22 37.7655 121.689 37.8081C122.158 37.8508 122.606 37.8721 123.033 37.8721C123.502 37.8721 123.95 37.8721 124.377 37.8721C124.846 37.8295 125.401 37.8081 126.041 37.8081C126.724 37.7655 127.214 37.7441 127.513 37.7441C127.812 37.7441 128.004 37.6801 128.089 37.5521L128.153 37.1681C128.452 34.5655 128.217 32.3255 127.449 30.4481C126.681 28.5281 125.529 26.9921 123.993 25.8401C122.457 24.6881 120.622 23.8988 118.489 23.4721C116.356 23.0028 114.116 22.9175 111.769 23.2161C110.617 23.3868 109.508 23.6428 108.441 23.9841C107.374 24.3255 106.414 24.8588 105.561 25.5841C104.324 26.4375 103.428 27.5255 102.873 28.8481C102.361 30.1708 101.998 31.5361 101.785 32.9441C101.572 34.3095 101.422 35.7175 101.337 37.1681C101.252 38.5761 101.188 39.9628 101.145 41.3281C101.102 42.9068 101.081 44.3148 101.081 45.5521C101.124 46.7468 101.166 47.8988 101.209 49.0081C101.294 50.0748 101.38 51.1628 101.465 52.2721C101.55 53.3815 101.657 54.6188 101.785 55.9841C101.87 56.8375 101.977 57.6908 102.105 58.5441C102.276 59.3548 102.425 59.9948 102.553 60.4641C103.065 62.2988 103.769 63.8348 104.665 65.0721C105.561 66.3095 106.862 67.2908 108.569 68.0161C109.593 68.4428 110.66 68.7201 111.769 68.8481C112.921 68.9761 114.094 68.9761 115.289 68.8481C116.484 68.7628 117.657 68.5921 118.809 68.3361C119.961 68.1228 121.07 67.8668 122.137 67.5681C123.758 66.9708 125.124 66.0961 126.233 64.9441C127.342 63.7921 128.004 62.1281 128.217 59.9521C128.644 57.6481 128.814 55.2375 128.729 52.7201C128.644 50.1601 128.473 47.7495 128.217 45.4881L128.153 45.4241H128.025C127.598 45.4241 126.766 45.3815 125.529 45.2961C124.334 45.1681 123.033 45.0828 121.625 45.0401C120.217 44.9975 118.873 45.0188 117.593 45.1041C116.356 45.1468 115.46 45.3388 114.905 45.6801ZM159.798 59.2481C156.896 59.3335 154.08 59.3121 151.35 59.1841C148.619 59.0135 145.846 58.9281 143.03 58.9281L142.966 58.8641C142.88 57.8401 142.795 56.5601 142.71 55.0241C142.667 53.4881 142.752 52.1015 142.966 50.8641C143.179 50.6935 143.584 50.5868 144.182 50.5441C144.779 50.5015 145.44 50.4801 146.166 50.4801C146.934 50.4801 147.723 50.4801 148.534 50.4801C149.344 50.4375 150.07 50.3308 150.71 50.1601C150.667 48.5815 150.688 47.0668 150.774 45.6161C150.859 44.1655 150.795 42.7148 150.582 41.2641V41.2001C149.259 41.1575 147.936 41.1361 146.614 41.1361C145.291 41.1361 143.99 41.0935 142.71 41.0081L142.646 40.9441C142.347 39.7921 142.262 38.5761 142.39 37.2961C142.56 35.9735 142.624 34.6935 142.582 33.4561L142.646 33.3921H142.838C144.246 33.2641 145.654 33.2001 147.062 33.2001C148.47 33.2001 149.878 33.2215 151.286 33.2641C152.694 33.2641 154.08 33.2428 155.446 33.2001C156.854 33.1148 158.24 32.9228 159.606 32.6241V32.5601C159.606 31.0668 159.648 29.5521 159.734 28.0161C159.862 26.4801 159.819 24.9655 159.606 23.4721C159.606 23.4295 159.179 23.3868 158.326 23.3441C157.472 23.3015 156.342 23.2801 154.934 23.2801C153.526 23.2801 151.904 23.3015 150.07 23.3441C148.235 23.3868 146.336 23.4295 144.374 23.4721C142.411 23.5148 140.448 23.5788 138.486 23.6641C136.566 23.7068 134.774 23.7708 133.11 23.8561C132.896 27.5255 132.768 31.1735 132.726 34.8001C132.683 38.4268 132.683 42.0535 132.726 45.6801C132.768 49.3068 132.832 52.9548 132.918 56.6241C133.003 60.2508 133.046 63.9201 133.046 67.6321C137.184 67.9735 141.494 68.0801 145.974 67.9521C150.496 67.7815 154.934 67.7175 159.286 67.7601C159.627 66.4801 159.819 65.1148 159.862 63.6641C159.904 62.1708 159.883 60.7415 159.798 59.3761V59.2481ZM194.002 67.7601C193.362 66.0108 192.573 64.3255 191.634 62.7041C190.695 61.0401 189.714 59.4188 188.69 57.8401C187.666 56.2615 186.621 54.7041 185.554 53.1681C184.487 51.5895 183.506 50.0108 182.61 48.4321V48.3681H182.674H182.93C184.978 48.2401 186.663 47.6641 187.986 46.6401C189.351 45.6161 190.439 44.3361 191.25 42.8001C192.573 40.5815 193.191 38.2988 193.106 35.9521C193.063 33.5628 192.487 31.3868 191.378 29.4241C190.269 27.4615 188.711 25.8188 186.706 24.4961C184.701 23.1735 182.439 22.4481 179.922 22.3201C176.807 21.9788 173.821 21.9575 170.962 22.2561C168.103 22.5548 165.479 22.8748 163.09 23.2161C163.175 23.7708 163.239 24.8375 163.282 26.4161C163.367 27.9521 163.431 29.8295 163.474 32.0481C163.517 34.2241 163.559 36.6348 163.602 39.2801C163.687 41.8828 163.73 44.5281 163.73 47.2161C163.773 49.8615 163.794 52.4428 163.794 54.9601C163.794 57.4348 163.794 59.6321 163.794 61.5521C163.794 63.4721 163.773 65.0295 163.73 66.2241C163.687 67.3761 163.623 67.9521 163.538 67.9521C163.751 67.9095 164.306 67.9095 165.202 67.9521C166.141 67.9948 167.186 67.9948 168.338 67.9521C169.49 67.9521 170.642 67.9095 171.794 67.8241C172.989 67.7388 173.949 67.5468 174.674 67.2481C174.631 66.4375 174.567 65.3495 174.482 63.9841C174.397 62.6188 174.311 61.1895 174.226 59.6961C174.183 58.1601 174.162 56.6881 174.162 55.2801C174.162 53.8295 174.226 52.6135 174.354 51.6321L174.482 51.8241C175.378 52.9335 176.274 54.2135 177.17 55.6641C178.066 57.1148 178.898 58.5868 179.666 60.0801C180.434 61.5735 181.138 63.0028 181.778 64.3681C182.418 65.7335 182.951 66.9068 183.378 67.8881H183.442C185.362 68.0161 187.239 68.0375 189.074 67.9521C190.909 67.8241 192.573 67.7601 194.066 67.7601H194.002ZM172.434 32.1761C173.927 31.5788 175.399 31.2588 176.85 31.2161C178.301 31.1308 179.495 31.5148 180.434 32.3681C181.031 32.8375 181.458 33.4775 181.714 34.2881C181.97 35.0561 182.055 35.8455 181.97 36.6561C181.885 37.4241 181.607 38.1495 181.138 38.8321C180.711 39.4721 180.093 39.8775 179.282 40.0481C178.258 40.2188 177.17 40.2828 176.018 40.2401C174.866 40.1975 173.799 40.1335 172.818 40.0481H172.754C172.669 39.5788 172.605 39.0028 172.562 38.3201C172.562 37.6375 172.562 36.9335 172.562 36.2081C172.562 35.4828 172.541 34.7788 172.498 34.0961C172.498 33.3708 172.477 32.7308 172.434 32.1761ZM206.775 22.9601C204.855 23.0028 203.383 23.0028 202.359 22.9601C201.378 22.8748 200.503 22.8108 199.735 22.7681C199.436 22.7681 198.967 22.7468 198.327 22.7041C197.73 22.6188 197.324 22.5975 197.111 22.6401V22.7681C196.727 26.3521 196.535 30.0215 196.535 33.7761C196.578 37.4881 196.642 41.2641 196.727 45.1041C196.855 48.9015 196.94 52.7415 196.983 56.6241C197.026 60.5068 196.898 64.3681 196.599 68.2081C197.026 68.0801 197.815 68.0375 198.967 68.0801C200.119 68.1655 201.314 68.2295 202.551 68.2721C203.831 68.3148 205.004 68.2935 206.071 68.2081C207.18 68.1655 207.906 67.9735 208.247 67.6321C208.034 64.0055 207.906 60.3361 207.863 56.6241C207.82 52.9121 207.82 49.2001 207.863 45.4881C207.948 41.7335 208.034 38.0001 208.119 34.2881C208.247 30.5761 208.311 26.8855 208.311 23.2161V22.9601H206.775ZM233.32 51.2481C233.448 51.2481 233.512 51.2055 233.512 51.1201C233.427 50.3521 233.384 49.4348 233.384 48.3681C233.427 47.3015 233.469 46.2561 233.512 45.2321C233.555 44.1655 233.555 43.2055 233.512 42.3521C233.512 41.4988 233.448 40.9228 233.32 40.6241C232.851 40.6668 232.275 40.7095 231.592 40.7521C230.909 40.7948 230.205 40.8161 229.48 40.8161C228.755 40.8161 228.008 40.8161 227.24 40.8161C226.515 40.7735 225.853 40.7095 225.256 40.6241C225.213 40.6241 225.171 40.6028 225.128 40.5601C224.744 39.8775 224.509 39.0241 224.424 38.0001C224.339 36.9761 224.531 35.9095 225 34.8001C226.323 34.6721 227.731 34.5655 229.224 34.4801C230.76 34.3948 232.275 34.3308 233.768 34.2881C235.304 34.2028 236.776 34.1175 238.184 34.0321C239.635 33.9468 240.936 33.8615 242.088 33.7761C242.131 33.2215 242.152 32.5388 242.152 31.7281C242.152 30.8748 242.152 30.0001 242.152 29.1041C242.152 28.1655 242.131 27.2695 242.088 26.4161C242.088 25.5628 242.088 24.8588 242.088 24.3041C240.893 24.0055 239.464 23.7708 237.8 23.6001C236.136 23.4295 234.365 23.3441 232.488 23.3441C230.611 23.3015 228.691 23.3228 226.728 23.4081C224.808 23.4508 222.973 23.5361 221.224 23.6641C219.517 23.7921 217.981 23.9201 216.616 24.0481C215.251 24.1761 214.205 24.3041 213.48 24.4321V24.4961C213.48 27.8241 213.48 30.8535 213.48 33.5841C213.48 36.2721 213.459 38.7895 213.416 41.1361C213.416 43.4828 213.416 45.7228 213.416 47.8561C213.416 49.9468 213.395 52.0375 213.352 54.1281C213.352 56.2188 213.352 58.3948 213.352 60.6561C213.352 62.8748 213.352 65.2641 213.352 67.8241L213.416 67.8881C213.587 67.9735 214.099 68.0375 214.952 68.0801C215.848 68.1228 216.872 68.1441 218.024 68.1441C219.176 68.1441 220.328 68.1228 221.48 68.0801C222.675 68.0375 223.699 67.9735 224.552 67.8881C224.595 65.4561 224.637 62.9175 224.68 60.2721C224.723 57.5841 224.851 54.8961 225.064 52.2081H225.128C226.408 51.9948 227.752 51.8455 229.16 51.7601C230.611 51.6321 231.997 51.4615 233.32 51.2481ZM271.153 23.6001C270.897 23.5575 270.556 23.5361 270.129 23.5361C269.702 23.4935 269.233 23.4721 268.721 23.4721C267.612 23.4721 266.396 23.5148 265.073 23.6001C263.793 23.6428 262.769 23.7495 262.001 23.9201C261.617 24.7735 261.212 25.8401 260.785 27.1201C260.358 28.4001 259.91 29.7015 259.441 31.0241C259.014 32.3468 258.566 33.6268 258.097 34.8641C257.67 36.0588 257.244 37.0401 256.817 37.8081C256.433 36.9975 255.985 35.9948 255.473 34.8001C255.004 33.6055 254.534 32.3468 254.065 31.0241C253.638 29.7015 253.212 28.4001 252.785 27.1201C252.401 25.8401 252.102 24.7308 251.889 23.7921C251.42 23.5788 250.929 23.4508 250.417 23.4081C249.905 23.3228 249.393 23.2801 248.881 23.2801C247.942 23.2801 247.004 23.3441 246.065 23.4721C245.126 23.6001 244.23 23.6641 243.377 23.6641C243.804 25.4561 244.38 27.2695 245.105 29.1041C245.83 30.9388 246.577 32.7735 247.345 34.6081C248.156 36.4428 248.924 38.2988 249.649 40.1761C250.374 42.0108 250.972 43.8668 251.441 45.7441V45.8721C249.948 49.6268 248.454 53.4028 246.961 57.2001C245.468 60.9548 244.166 64.5601 243.057 68.0161H243.185C243.441 68.0588 243.697 68.0801 243.953 68.0801C244.209 68.0801 244.465 68.0801 244.721 68.0801C245.702 68.0801 246.726 68.0375 247.793 67.9521C248.86 67.9095 249.841 67.8881 250.737 67.8881C251.036 67.8881 251.313 67.8881 251.569 67.8881C251.825 67.8881 252.081 67.9095 252.337 67.9521C253.617 64.1975 255.089 60.5068 256.753 56.8801C258.417 53.2108 260.124 49.5628 261.873 45.9361C263.622 42.2668 265.308 38.5975 266.929 34.9281C268.55 31.2588 269.958 27.5041 271.153 23.6641V23.6001Z"
     fill="white"
     id="path4"
     style="fill:#000000;stroke:#ffffff;stroke-width:1.5;stroke-miterlimit:4;stroke-dasharray:none" />
</svg>
