<svg id="Layer_1" data-name="Layer 1" xmlns="http://www.w3.org/2000/svg" viewBox="0 0 1269.31 1377.6"><defs><style>.cls-1{fill:#a09d9d;}.cls-2{fill:#a7a4a4;}.cls-3{fill:#fefdfd;}.cls-4{fill:#f37f82;}.cls-5{fill:#fff;}.cls-6{fill:#ec2027;}.cls-7{fill:#07090a;}.cls-8{fill:#f2ea19;}</style></defs><title>1</title><path d="M1157.24,61.2c6.5,2.57,12.91,5.28,18.78,9.19,20.9,13.91,33.87,33.45,40.59,57.35,5,17.59,5.88,35.55,4.27,53.68a76.71,76.71,0,0,1-1.27,11.09,154.32,154.32,0,0,1,15.7,1.08c13.43,1.78,26.22,5.43,37.59,13,20,13.34,29.27,32.71,31,56.12,1.19,15.85-1.68,31.13-6.53,46.19-9.37,29.09-21,57.2-36.52,83.57A195.55,195.55,0,0,1,1244.1,417c-1.53,1.88-1.67,3.32-.58,5.52,14,28.27,22.34,58.28,27.14,89.37.58,3.76.63,7.63,1.93,11.5,9.89-1.8,19.73-3.55,29.63-4.91,10.92-1.49,21.89-2.54,32.87-3.34,17.39-1.27,34.82-1.29,52.25-1,6.06.1,12.13.46,18.19.86,5.74.39,9,4.24,9,10.23-.06,5.74-3.72,9.65-9.41,9.85a76.46,76.46,0,0,1-8.15-.19c-19.65-1.47-39.31-.76-58.92.39a444,444,0,0,0-59.78,7.67c-4.08.8-4.14.85-3.93,5.27a345.61,345.61,0,0,1-.16,39.29c-1,15.62-2.23,31.23-3.05,47.23,3.45.28,7.07.64,10.69.87,11.8.78,23.61,1.33,35.39,2.3,13.68,1.14,27.36,2.34,40.94,4.44,6.78,1,13.56,2.08,20.32,3.16a25.09,25.09,0,0,1,4.2,1,10.09,10.09,0,0,1-4.55,19.56c-5.53-.77-11-1.83-16.52-2.72-12.77-2-25.63-3.31-38.5-4.51-16.23-1.51-32.5-2.41-48.76-3.4-1.28-.08-2.56-.1-3.82-.28-2-.27-2.73.41-3.13,2.45a273.69,273.69,0,0,1-8.65,33.33,286.54,286.54,0,0,1-17.47,41.92c-.65,1.25-1.57,2.42-1.68,4.23,7.61,2.39,15.3,4.69,22.93,7.2,25,8.24,49.33,18.07,71.6,32.4a142.78,142.78,0,0,1,14,10.12c3.54,2.93,4.86,6.71,3.42,11.14a10.09,10.09,0,0,1-15.62,5c-2.76-1.9-5.32-4.09-8.06-6-17-11.93-35.73-20.27-55-27.59-13.25-5-26.76-9.28-40.44-13-3.86-1.06-3.91-1.09-5.85,1.89-29.54,45.39-69.4,79.3-116.74,104.86-3.36,1.82-6.76,3.55-10.15,5.33a4,4,0,0,0,2,1.51c23.53,10.32,40.89,27.43,53.89,49.26a152.19,152.19,0,0,1,20.16,60.38c2.28,18.88,2,37.62-3,56.1a89,89,0,0,1-7,18.3c-1,2-1,3.24.48,5,26.11,32.47,42.83,69.44,51.07,110.1,15.43,76.18-7.15,156.07-62.23,210.84-28.91,28.76-63.52,47.23-103.42,55.71-4.36.93-8.8,1.52-13.2,2.26-4.67.93-9.39.16-14.07.42q-43.21-1-75.26-30c-23.24-21-36.21-47.87-45.11-77.19a296.13,296.13,0,0,1-7-29.47c-2.45.46-3.47,2.2-4.75,3.48-25.67,25.62-51.56,51-76.87,77-15.7,16.11-43.23,17-60.42,2-19.4-16.86-39.11-33.37-58.48-50.27-1.57-1.37-3-2.91-4.5-4.31-3.87-3.54-4.56-3.44-6.86,1.1a267,267,0,0,1-19,32.17c-17,24.5-37.78,45-64.39,59-19.48,10.22-40.17,16.39-62.4,16.45H520.46c-31.45-.4-59.06-11.56-83.41-30.84-24.59-19.47-41.77-44.73-54.6-73.06a290.83,290.83,0,0,1-21.74-71.86c-3.93-23.15-1.52-45.86,3.86-68.42,8.06-33.73,22.23-64.59,43.76-91.93,3.26-4.14,6.67-8.16,10.31-12,1.83-1.92,2.05-3.65.67-6-18.62-31.4-17.85-64.63-8.42-98.3,5.81-20.74,16.44-39.12,30.88-55.2a28.87,28.87,0,0,0,6.6-11.55,120.25,120.25,0,0,1,10.25-24.76c2-3.65,1.69-5.38-1.83-7.59A401.4,401.4,0,0,1,414.61,856c-6.16-5.1-12.12-10.41-18.12-15.69-2.46-2.15-4.49-2.3-7.26-.64-26.14,15.61-50.93,33-73.53,53.52-10,9.08-18.81,19.1-27.45,29.36-2.86,3.4-6,6.19-10.85,6.08a11,11,0,0,1-9.58-16.41,63.31,63.31,0,0,1,6.89-9.19c14.8-17.77,31.83-33.15,50.05-47.3a505,505,0,0,1,47.45-32.51c3.94-2.39,4-2.91,1.1-6a384.65,384.65,0,0,1-47.46-60.71c-4.1-6.5-4.16-6.3-11.37-3.76-24.51,8.63-48.11,19.12-70,33.26-4,2.61-7.84,5.52-11.81,8.21-6.56,4.44-12.55,3.61-16.72-2.37-3.75-5.37-2.29-11.9,3.66-16.26,25.51-18.66,53.64-32.23,83.26-42.9.9-.33,1.82-.61,2.72-.94,4.61-1.72,4.92-2.31,2.82-6.56A294.06,294.06,0,0,1,281.72,645c-.62-3.57-2.06-4.6-5.76-4.28A296.81,296.81,0,0,0,193.61,660a292.22,292.22,0,0,0-31.05,13.89c-7.49,4-13.67,1.28-17.39-7.36V662.7c1.05-4.93,4.25-7.92,8.63-10.11,34.6-17.36,71-28.93,109.48-33.52,2.85-.34,5.69-.77,8.57-.93,5-.26,5.46-.81,5.37-5.71-.2-10.85-1.1-21.67-1.05-32.55.12-29.88,4.43-59.24,10.73-88.33,8.65-40,21.7-78.54,37.82-116.09,1.72-4,.78-6.79-1.63-10-17.78-23.91-29.24-50.45-33.57-80.07-4.75-32.48.87-63.3,14.12-93a204.6,204.6,0,0,1,26.22-43.94c7.88-10,18.43-15.27,30.87-16.38a248,248,0,0,1,24.86-1.25A356.73,356.73,0,0,1,554.92,177a14.32,14.32,0,0,0,11,1.66c30.61-6.7,61.42-12.38,92.35-17.35,27.14-4.36,54.36-8.05,81.76-10.41,18.45-1.59,36.92-2.7,55.45-2.81,4.83,0,9.53.88,14.33,1.1a10.45,10.45,0,0,0,10-4.95c11.42-16.36,24.83-30.89,41.27-42.37,15.33-10.72,32.11-17.63,51-19.06,23.29-1.77,45.47,1.82,66.35,12.67a88.88,88.88,0,0,1,27.21,22.39c4.93,5.9,4.81,6,10.93,1,18.51-15.12,38.19-28.48,59.59-39.16A201.62,201.62,0,0,1,1114.56,65a91.37,91.37,0,0,1,23.64-3.3c1.23,0,2.56.43,3.7-.47Z" transform="translate(-145.17 -61.2)"/><path class="cls-1" d="M540.44,1437.89a2.32,2.32,0,0,0,0,.91H519.3a2.32,2.32,0,0,0,0-.91Z" transform="translate(-145.17 -61.2)"/><path class="cls-2" d="M1022.94,1438.8a3,3,0,0,0,0-.9h15.42a3.47,3.47,0,0,0,0,.91Z" transform="translate(-145.17 -61.2)"/><path class="cls-3" d="M804.85,170.37c-3.18,6.55-6.17,12.34-8.86,18.27-9.11,20.1-16.51,40.77-20.77,62.5-7.07,36.05,5.45,64.65,33.54,87,14.91,11.85,32.41,18.12,51.06,21.44,14.75,2.63,29.61,2.47,44.44,1.63,14.5-.82,28.84-3.07,42.45-8.6a61,61,0,0,0,17.13-10.24c1.55.2,2.07,1.52,2.9,2.42a106.5,106.5,0,0,0,62.37,33.72,96.71,96.71,0,0,0,34.31-.33c2.84-.55,3.88.3,5.07,2.62,8.22,16,18.12,30.83,30.61,43.84,13.72,14.3,29.54,25.39,48.84,30.72,27.71,7.65,52.7,2.13,74.82-16.25,1.35-1.12,2.69-2.27,4-3.38,1.45.83,1.71,2.35,2.26,3.62a296.27,296.27,0,0,1,21.31,74.79c.56,3.63.88,7.3,1.66,10.88.59,2.72-.6,3.64-2.9,4.22A262.42,262.42,0,0,0,1216.5,540a164.85,164.85,0,0,0-24.5,11.81c-4.44,2.7-6.36,6.54-5.58,10.72,1.37,7.31,8.78,10.71,15.51,6.87a183.41,183.41,0,0,1,20.17-9.86A290.06,290.06,0,0,1,1250,549.8a8,8,0,0,1,4-.46c.33,13.06.64,26.16-.32,39.22-.92,12.59-2.06,25.16-2.51,37.78-.27,7.71-.43,7.76-7.91,7.58-7.82-.18-15.64-.49-23.47-.71a14.65,14.65,0,0,0-5.2.53c-4.73,1.6-7.84,5.87-7.38,10.48a9.73,9.73,0,0,0,9.5,9c8.77.39,17.56.54,26.35.81a9.17,9.17,0,0,1,4,.46,237.69,237.69,0,0,1-8.1,30.82,262.27,262.27,0,0,1-18.47,43c-1.82,3.38-1.85,3.35-5.78,2.5-8.4-1.83-16.79-3.67-25.21-5.42a25.4,25.4,0,0,0-5.23-.49,9.57,9.57,0,0,0-9.79,8c-.82,5.15,1.7,9.9,6.68,11.25,5.83,1.57,11.82,2.53,17.74,3.79a40.31,40.31,0,0,1,8.24,2.11c-.88,1.4-1.62,2.71-2.48,4-24.07,34.49-54.81,61.71-90.79,83.22a449.07,449.07,0,0,1-43.33,22.24c-2.55,1.17-3.58.54-5-1.44-21.88-30.34-51.73-48-88-55.49a182.09,182.09,0,0,0-49-3.54c-15.59,1-30.21,6.08-44.24,12.8C861.74,822.68,842,837.45,823.41,854c-21.19,18.85-40.32,39.67-58.14,61.69-1.51,1.86-3,3.74-4.55,5.67-1.52-.46-2.05-1.85-2.89-2.9-16.58-20.76-34.1-40.67-53.72-58.63S663.54,826.27,639,815.83c-18.9-8-38.53-11.3-58.89-9-25.37,2.92-48.37,12.18-69.12,27a158.88,158.88,0,0,0-35.05,34.5c-.84,1.12-1.4,2.54-3.05,3.33a444,444,0,0,1-60.47-46.3c7.94-4.54,15.85-8.17,23.71-11.92,1.58-.75,3.24-1.34,4.79-2.16,5-2.61,7-8.07,4.88-13a9.78,9.78,0,0,0-13.1-5.33c-9.31,3.77-18.2,8.41-27.12,13-2.83,1.46-5.79,4.28-8.44,4-3-.31-5-4.16-7.27-6.57a373.39,373.39,0,0,1-44.18-56c-.94-1.47-1.84-3-3-4.78,6.77-2.4,13.55-3.79,20.29-5.31,5.39-1.22,8.57-5,8.6-10a9.79,9.79,0,0,0-9.93-10c-4.05-.05-7.82,1.44-11.69,2.29-4.66,1-9.28,2.25-13.83,3.67-3.48,1.09-3.67,1.87-5.81-2.36a304.07,304.07,0,0,1-19.4-47.29,321.32,321.32,0,0,1-8.21-32.93,3.26,3.26,0,0,1,.09-2.34,4.06,4.06,0,0,1,2.76-.4c17.71.62,35.36,1.72,52.67,6,7.64,1.88,13.85-3.06,13.32-10.46-.31-4.33-3.27-7.85-8-9a186.36,186.36,0,0,0-21.13-4,305.6,305.6,0,0,0-40.1-2.64c-1.95,0-3-.45-3-2.58,0-.95-.28-1.9-.34-2.85-1.63-25.89-1.44-51.7,2.16-77.48,7-50.28,21.61-98.37,40.9-145.16,2.73-6.64,5.55-13.24,8.58-19.75,1.16-2.48,1.09-4-.9-6.18A155.32,155.32,0,0,1,314.06,298c-8.16-31.26-5.12-61.74,7-91.47a203.77,203.77,0,0,1,24.28-42.8,24.33,24.33,0,0,1,18.55-10.4,261.58,261.58,0,0,1,43.09.1,327.52,327.52,0,0,1,73.89,14.68,342.35,342.35,0,0,1,71.65,32.48A10.63,10.63,0,0,0,561,202c22-5.07,44.25-9.24,66.49-13.33q27.74-5.1,55.63-9.21c13.72-2,27.49-3.68,41.28-5.24,20.64-2.35,41.34-3.66,62.08-4.28C792.36,169.73,798.26,170.19,804.85,170.37Z" transform="translate(-145.17 -61.2)"/><path class="cls-4" d="M1044.42,864.45c-36.6,11.56-59,36.16-67.82,72.89-3.9,16.17,0,31.71,7.33,46.39a91.26,91.26,0,0,0,12.22,18.3c1.55,1.82,3.14,3.63,4.73,5.41,6.62,7.41,11.19,15.68,12.84,25.74a93.28,93.28,0,0,0,13.82,36,81.31,81.31,0,0,0,17.48,19.1c-3,6-6.52,11.48-10,17-18.65,29.53-40.3,56.79-63.11,83.17-30.86,35.68-63.6,69.61-96.78,103.13-24.85,25.11-49.92,50-74.85,75-5,5.07-10.94,7.54-18.1,7-5.16-.37-9.41-2.65-13.32-5.91q-23-19.18-45.56-38.93c-37.65-33-74.36-67-109.66-102.43-31.93-32.08-62.72-65.19-90.74-100.79-1.46-1.87-3.18-3.57-4.22-5.9,5.39-1.88,10.66-3.71,15.53-6.49,16.34-9.34,26.48-23.66,33-40.92a160.27,160.27,0,0,0,5.52-18.82,40.58,40.58,0,0,1,7.24-15c4.25-5.61,8.83-11,13.57-16.15,12.52-13.74,21.2-29.43,25.06-47.76,5.41-25.71-5-66.31-36-83.69-13.68-7.67-28.38-10.15-43.82-9.57-19.08.71-36.54,6.87-53.21,15.71-1.53.81-3,1.69-5.16,2.9a16.11,16.11,0,0,1,2.63-5.5c17.91-29.9,42.79-51.3,76.16-62.29a105.92,105.92,0,0,1,42-5.27c12.38,1,24,4.86,35.22,10.13,18.09,8.52,34,20.26,48.91,33.4,23.25,20.48,43.69,43.58,62.16,68.35,7.06,9.46,18.13,10.14,25.68.07a462.43,462.43,0,0,1,70.58-75.53c15.27-13,31.52-24.48,49.64-33.23a109,109,0,0,1,60-10.38c19.1,2,37.43,6.12,54.59,14.87a112.29,112.29,0,0,1,32.86,25.29C1042.17,861.19,1043.62,862.48,1044.42,864.45Z" transform="translate(-145.17 -61.2)"/><path class="cls-5" d="M1152,1074.17a72.32,72.32,0,0,1,8.18,10.71c20,30.19,33.93,63,38.9,98.93,8.79,63.55-6.5,120.81-47.92,170.22-27,32.23-61.55,53.13-102.78,61.31-38.44,7.62-70.79-4.77-96.09-34.68-13.09-15.46-21.06-33.75-27-53-4.58-14.81-7.39-30-9.57-45.35-.38-2.67.84-4.12,2.43-5.76,22.39-23,44.37-46.46,65.48-70.67,24.58-28.2,48-57.31,68-89,3.24-5.12,6.32-10.35,9.44-15.54,2-3.26,1.94-3.28,5.37-2.2a85.75,85.75,0,0,0,19.64,3.87c18.93,1.41,35.3-5.46,50.66-15.57A87.69,87.69,0,0,0,1152,1074.17Z" transform="translate(-145.17 -61.2)"/><path class="cls-5" d="M436.72,1101.86c13.22,10.56,27.77,16.26,43.55,19a103.6,103.6,0,0,0,11.41,1.22,5.68,5.68,0,0,1,4.78,2.37c40.85,54.14,87.9,102.6,136.73,149.43,11.76,11.28,23.75,22.32,35.69,33.42,1.37,1.28,2.33,2.12,1.31,4.34-12.88,28-29.36,53.42-53,73.69-18.15,15.58-38.87,26.29-62.51,30.16-49.33,8.09-91.13-5.92-124-44.21-17.4-20.26-29.08-43.76-37.71-68.85a248.66,248.66,0,0,1-12.4-54.47c-1.17-10.9,0-21.73,1.76-32.45,4.95-30.1,15.16-58.27,31.62-84A187.77,187.77,0,0,1,434.42,1105,37.52,37.52,0,0,0,436.72,1101.86Z" transform="translate(-145.17 -61.2)"/><path class="cls-6" d="M888.17,341.35a117.21,117.21,0,0,1-46.36-7.78c-12.68-5-23.83-12.28-32.64-22.81-13.31-15.92-18.61-34.12-14.26-54.53,9-42.06,26.08-80.39,53.7-113.65,10.29-12.4,22.39-22.79,36.95-30a77.2,77.2,0,0,1,34.54-8.43c13.38,0,26.47,1.46,39,6.31,23.5,9.12,37.73,26.55,44.58,50.42,1,3.52,1.53,7.17,2.45,10.72.44,1.75,0,2.64-1.66,3.32a102,102,0,0,0-25,14.87c-1.62,1.31-2.92.55-4.43.12-14.22-4.08-28.41-4-42.37,1-17.32,6.18-29,17.85-33.07,36.09-3.3,14.87-.19,28.91,7.3,42,7.91,13.81,19.38,24.08,33.09,31.88a8.44,8.44,0,0,1,4.33,5.26,93.53,93.53,0,0,0,6.35,15.49c1.94,3.83,1.93,3.92-1.57,6.61-5.41,4.16-11.63,6.64-18.13,8.39C917.1,340.25,903,341.5,888.17,341.35Z" transform="translate(-145.17 -61.2)"/><path class="cls-5" d="M543.31,901.44a57.85,57.85,0,0,1,18.7,2.61c19,5.9,29.55,19.63,35,38,6.38,21.68.86,41-12.13,58.61-4.92,6.66-10.6,12.78-16.07,19-8.47,9.67-14.41,20.55-17,33.26a80.5,80.5,0,0,1-5.4,16.32c-8.11,18.54-21.5,30.1-42.17,32.14-19.34,1.91-37.11-2.43-52.79-14-13-9.52-20.26-22.86-23.2-38.43-5.53-29.28-.42-57,14.43-82.6,17.52-30.2,43-51,76.49-61.45A74,74,0,0,1,543.31,901.44Z" transform="translate(-145.17 -61.2)"/><path class="cls-6" d="M1212.54,212.86c15.35-.05,28,1.14,40,6.13,17.62,7.32,27.34,20.79,30.37,39.4a78.85,78.85,0,0,1-2.18,34.64c-9.41,33-22.21,64.57-40.32,93.83-7.77,12.54-16.65,24.23-27.76,34.07-8.72,7.73-18.36,13.88-29.93,16.29-12.92,2.69-25.4.64-37.46-4.33-14.2-5.85-25.61-15.46-35.64-26.86a171.4,171.4,0,0,1-21.34-31.18c-1.66-3-1.64-3.16,1.43-4.56a87.61,87.61,0,0,0,16.2-9.24,7.59,7.59,0,0,1,7-1.41,65.57,65.57,0,0,0,17.55,1.9c23.94-.33,41.08-11.59,51.46-32.85,9.76-20,7.58-39.33-5.14-57.47-6.6-9.42-15.14-16.86-24.78-23a9.21,9.21,0,0,1-4.4-5.86,67.32,67.32,0,0,0-4.84-13c-1-2.14-.49-3.06,1.53-4a126.23,126.23,0,0,1,24.08-7.78C1183.79,214.28,1199.38,213.16,1212.54,212.86Z" transform="translate(-145.17 -61.2)"/><path class="cls-5" d="M1156.56,1000.24c0,17.82-2.82,35-12.39,50.42-11,17.7-27,28.89-47.28,31.82-18.69,2.7-35.24-3.92-47.87-18.55-8.47-9.8-13.23-21.51-15.2-34.11-2.22-14.13-8.68-25.84-18-36.27a101.07,101.07,0,0,1-10.07-12.78c-11.69-18.27-13.49-37-3.23-56.62,8.89-17,21.16-30.35,39.4-37.25,20.76-7.85,40.77-5.12,59.74,5.72s32,27,41.38,46.47S1156.54,978.86,1156.56,1000.24Z" transform="translate(-145.17 -61.2)"/><path class="cls-6" d="M1045.65,186.93c46.25.08,86.22,36.76,86.25,86.26a85.75,85.75,0,0,1-86.19,86.24c-49.5,0-86.28-40.52-86.27-86.19A86.52,86.52,0,0,1,1045.65,186.93Z" transform="translate(-145.17 -61.2)"/><path class="cls-5" d="M1201.34,167a184.87,184.87,0,0,1-1.79,22.49c-.55,3.58-.49,3.77-4,3.92a179.14,179.14,0,0,0-19.49,2.1c-14.38,2.22-28.36,5.79-41.57,12-3.53,1.67-3.55,1.66-5.79-1.09-17-20.89-38.86-33.7-65.32-38.43a96.32,96.32,0,0,0-31.47-.46c-5.61.85-5.71.8-6.77-4.53a101.7,101.7,0,0,0-4.44-15.63c-.72-1.92-.72-3.14.94-4.55,27.78-23.63,57.46-44.05,92.65-55.25a136.18,136.18,0,0,1,35.19-6.25,14.37,14.37,0,0,1,6.92,1.44c15.66,7.37,26.87,19.2,34.52,34.54C1198.3,132.07,1201.1,148.34,1201.34,167Z" transform="translate(-145.17 -61.2)"/><path class="cls-6" d="M938.72,274.65c-11.45-9.35-19.4-20.59-19.93-35.66-.33-9.59,3-17.93,11-23.79,9.19-6.71,19.54-8.55,31.4-7.19C946.42,228.16,938.72,250,938.72,274.65Z" transform="translate(-145.17 -61.2)"/><path class="cls-6" d="M1152.47,274.75c11.69,9.87,19.25,25.72,12.48,42.33-6.45,15.81-19.74,24.88-36.77,24,7.31-9.86,13.52-19.91,17.63-31.16S1151.81,287.17,1152.47,274.75Z" transform="translate(-145.17 -61.2)"/><path class="cls-7" d="M562.62,662c0,11.22-2.25,21.89-8.35,31.49a30.53,30.53,0,0,1-13.34,12c-7.66,3.41-15.24,2.77-22.61-.92a36.43,36.43,0,0,1-13.42-11.35c-15-20.82-18.37-43.37-9.61-67.58a36.27,36.27,0,0,1,8.51-13.18c8.67-8.76,20.21-10.67,31.16-5.09,7.79,4,13.41,10.21,17.83,17.6A72.79,72.79,0,0,1,562.62,662Z" transform="translate(-145.17 -61.2)"/><path class="cls-7" d="M1005.4,615.29c0-8.75,1.56-17.15,5.81-24.88,4.34-7.9,10.51-13.52,19.63-15.4,6.23-1.29,12,.07,17.6,2.75a37.06,37.06,0,0,1,12.74,9.93c14.18,17.31,18.77,36.93,13.47,58.72a36.81,36.81,0,0,1-7.52,14.81c-8.16,9.88-20.12,12.76-31.87,7.57-10.76-4.74-17.76-13.27-22.88-23.5A65.37,65.37,0,0,1,1005.4,615.29Z" transform="translate(-145.17 -61.2)"/><path d="M798.69,762.51c-12.5-.35-24.31-3.56-34.57-11.4-8-6.13-13.5-14-15.51-24-2.48-12.29.9-23.07,9-32.43,7.81-9.08,18-14.08,29.56-16.34a60,60,0,0,1,39.94,5.44C836,688.4,843,695,847.28,704.13c7.52,16.12,2.74,34.72-11.86,46.31C824.74,758.91,812.37,762.35,798.69,762.51Z" transform="translate(-145.17 -61.2)"/><path class="cls-8" d="M799.37,742.34a45,45,0,0,1-17.18-3.85A28.62,28.62,0,0,1,775,733.8c-9.31-8.4-9.19-20.06.37-28.18,7.44-6.33,16.36-8.48,25.83-8.09,7.58.31,14.79,2.34,20.92,7.16,5.75,4.53,9.16,10.16,8.05,17.78-.81,5.56-4.07,9.6-8.42,12.84C815.12,740.26,807.41,741.92,799.37,742.34Z" transform="translate(-145.17 -61.2)"/></svg>