<?xml version="1.0" encoding="UTF-8" standalone="no"?>
<!-- Created with Inkscape (http://www.inkscape.org/) -->

<svg
   width="17mm"
   height="17mm"
   viewBox="0 0 17 17"
   version="1.1"
   id="svg5"
   inkscape:version="1.1.1 (3bf5ae0d25, 2021-09-20)"
   sodipodi:docname="Moon.svg"
   xmlns:inkscape="http://www.inkscape.org/namespaces/inkscape"
   xmlns:sodipodi="http://sodipodi.sourceforge.net/DTD/sodipodi-0.dtd"
   xmlns="http://www.w3.org/2000/svg"
   xmlns:svg="http://www.w3.org/2000/svg">
  <sodipodi:namedview
     id="namedview7"
     pagecolor="#ffffff"
     bordercolor="#666666"
     borderopacity="1.0"
     inkscape:pageshadow="2"
     inkscape:pageopacity="0.0"
     inkscape:pagecheckerboard="0"
     inkscape:document-units="mm"
     showgrid="false"
     fit-margin-top="0"
     fit-margin-left="0"
     fit-margin-right="0"
     fit-margin-bottom="0"
     inkscape:zoom="5.8725028"
     inkscape:cx="0.51085544"
     inkscape:cy="25.7982"
     inkscape:window-width="1920"
     inkscape:window-height="1009"
     inkscape:window-x="-8"
     inkscape:window-y="-8"
     inkscape:window-maximized="1"
     inkscape:current-layer="layer1" />
  <defs
     id="defs2">
    <inkscape:path-effect
       effect="powerclip"
       id="path-effect1569"
       is_visible="true"
       lpeversion="1"
       inverse="true"
       flatten="false"
       hide_clip="false"
       message="Jeśli po konwersji przycięcia na ścieżki nie zostanie spłaszczony wynik, użyj reguły wypełniania w oknie dialogowym &lt;b&gt;wypełnienie i obrys&lt;/b&gt; ." />
    <clipPath
       clipPathUnits="userSpaceOnUse"
       id="clipPath1565">
      <circle
         style="display:none;fill:#ececec;fill-rule:evenodd;stroke:#f2f2f2;stroke-width:0.928116;stroke-linecap:round;stroke-miterlimit:4;stroke-dasharray:none;stroke-opacity:1;paint-order:markers fill stroke"
         id="circle1567"
         cx="17.387144"
         cy="15.000978"
         r="5.5687208"
         d="m 22.955865,15.000978 a 5.5687208,5.5687208 0 0 1 -5.568721,5.568721 5.5687208,5.5687208 0 0 1 -5.568721,-5.568721 5.5687208,5.5687208 0 0 1 5.568721,-5.5687203 5.5687208,5.5687208 0 0 1 5.568721,5.5687203 z" />
      <path
         id="lpe_path-effect1569"
         style="fill:#ececec;fill-rule:evenodd;stroke:#f2f2f2;stroke-width:0.928116;stroke-linecap:round;stroke-miterlimit:4;stroke-dasharray:none;stroke-opacity:1;paint-order:markers fill stroke"
         class="powerclip"
         d="M 3.0653775,2.9319432 H 27.203448 V 27.070014 H 3.0653775 Z M 22.955865,15.000978 a 5.5687208,5.5687208 0 0 0 -5.568721,-5.5687203 5.5687208,5.5687208 0 0 0 -5.568721,5.5687203 5.5687208,5.5687208 0 0 0 5.568721,5.568721 5.5687208,5.5687208 0 0 0 5.568721,-5.568721 z" />
    </clipPath>
  </defs>
  <g
     inkscape:label="Warstwa 1"
     inkscape:groupmode="layer"
     id="layer1"
     transform="translate(-6.634413,-6.5)">
    <path
       style="fill:#ffffff;fill-rule:evenodd;stroke:#ffffff;stroke-width:1.08754;stroke-linecap:round;stroke-miterlimit:4;stroke-dasharray:none;stroke-opacity:1;paint-order:markers fill stroke"
       id="path1340"
       clip-path="url(#clipPath1565)"
       inkscape:path-effect="#path-effect1569"
       sodipodi:type="arc"
       sodipodi:cx="15.134413"
       sodipodi:cy="15.000978"
       sodipodi:rx="6.5252652"
       sodipodi:ry="6.5252652"
       d="M 21.659678,15.000978 A 6.5252652,6.5252652 0 0 1 15.134413,21.526244 6.5252652,6.5252652 0 0 1 8.6091475,15.000978 6.5252652,6.5252652 0 0 1 15.134413,8.4757133 6.5252652,6.5252652 0 0 1 21.659678,15.000978 Z" />
  </g>
</svg>
